<mxfile host="app.diagrams.net" agent="Mozilla/5.0 (Windows NT 10.0; Win64; x64) AppleWebKit/537.36 (KHTML, like Gecko) Chrome/131.0.0.0 Safari/537.36" version="25.0.3">
  <diagram name="Страница — 1" id="lc5QUS43yqOy6oCRH7sK">
    <mxGraphModel grid="1" page="1" gridSize="10" guides="1" tooltips="1" connect="1" arrows="1" fold="1" pageScale="1" pageWidth="827" pageHeight="1169" math="0" shadow="0">
      <root>
        <mxCell id="0" />
        <mxCell id="1" parent="0" />
        <mxCell id="VwrpLJ0H7ob7NyGUzkcD-1" value="отработка возражений" style="html=1;overflow=block;blockSpacing=1;whiteSpace=wrap;fontSize=20;fontColor=default;fontStyle=1;spacing=3.8;strokeColor=#f2f3f5;strokeOpacity=100;fillOpacity=100;rounded=1;absoluteArcSize=1;arcSize=9;fillColor=#f2f3f5;strokeWidth=1.5;lucidId=2.3AMMcDH2u0;" vertex="1" parent="1">
          <mxGeometry x="360" y="-61" width="360" height="62" as="geometry" />
        </mxCell>
        <mxCell id="VwrpLJ0H7ob7NyGUzkcD-2" value="" style="html=1;jettySize=18;whiteSpace=wrap;overflow=block;blockSpacing=1;fontSize=13;strokeColor=#3a414a;strokeOpacity=100;strokeWidth=0.8;rounded=1;arcSize=12;edgeStyle=orthogonalEdgeStyle;startArrow=none;endArrow=block;endFill=1;exitX=0.5;exitY=1.012;exitPerimeter=0;entryX=0.5;entryY=-0.012;entryPerimeter=0;lucidId=w~3AoPNP87yX;" edge="1" parent="1" source="VwrpLJ0H7ob7NyGUzkcD-1" target="VwrpLJ0H7ob7NyGUzkcD-3">
          <mxGeometry width="100" height="100" relative="1" as="geometry">
            <Array as="points" />
          </mxGeometry>
        </mxCell>
        <mxCell id="VwrpLJ0H7ob7NyGUzkcD-3" value="не интересно/&#xa;есть свое решение" style="html=1;overflow=block;blockSpacing=1;whiteSpace=wrap;fontSize=15;fontColor=default;fontStyle=1;spacing=3.8;strokeColor=#fcfcca;strokeOpacity=100;fillOpacity=100;rounded=1;absoluteArcSize=1;arcSize=9;fillColor=#fcfcca;strokeWidth=1.5;lucidId=w~3ADN6vLl8O;" vertex="1" parent="1">
          <mxGeometry x="480" y="119" width="120" height="62" as="geometry" />
        </mxCell>
        <mxCell id="VwrpLJ0H7ob7NyGUzkcD-4" value="Мы передадим" style="html=1;overflow=block;blockSpacing=1;whiteSpace=wrap;fontSize=15;fontColor=default;fontStyle=1;spacing=3.8;strokeColor=#e3fae3;strokeOpacity=100;fillOpacity=100;rounded=1;absoluteArcSize=1;arcSize=9;fillColor=#e3fae3;strokeWidth=1.5;lucidId=C~3AqKgkN~wi;" vertex="1" parent="1">
          <mxGeometry x="900" y="120" width="120" height="60" as="geometry" />
        </mxCell>
        <mxCell id="VwrpLJ0H7ob7NyGUzkcD-5" value="я подумаю" style="html=1;overflow=block;blockSpacing=1;whiteSpace=wrap;fontSize=15;fontColor=default;fontStyle=1;spacing=3.8;strokeColor=#fff0f0;strokeOpacity=100;fillOpacity=100;rounded=1;absoluteArcSize=1;arcSize=9;fillColor=#fff0f0;strokeWidth=1.5;lucidId=E~3A7mk5qrTG;" vertex="1" parent="1">
          <mxGeometry x="60" y="120" width="120" height="60" as="geometry" />
        </mxCell>
        <mxCell id="VwrpLJ0H7ob7NyGUzkcD-6" value="мне не интересно" style="html=1;overflow=block;blockSpacing=1;whiteSpace=wrap;fontSize=14.7;fontStyle=1;spacing=3.8;strokeColor=#fbf0ff;strokeOpacity=100;fillOpacity=100;rounded=1;absoluteArcSize=1;arcSize=9;fillColor=#fbf0ff;strokeWidth=1.5;lucidId=F~3AbFGuVXMD;" vertex="1" parent="1">
          <mxGeometry x="-360" y="120" width="120" height="60" as="geometry" />
        </mxCell>
        <mxCell id="VwrpLJ0H7ob7NyGUzkcD-7" value="нам не нужна крипта" style="html=1;overflow=block;blockSpacing=1;whiteSpace=wrap;fontSize=15;fontColor=default;fontStyle=1;spacing=3.8;strokeColor=#edf5ff;strokeOpacity=100;fillOpacity=100;rounded=1;absoluteArcSize=1;arcSize=9;fillColor=#edf5ff;strokeWidth=1.5;lucidId=G~3A431WRFoU;" vertex="1" parent="1">
          <mxGeometry x="1320" y="120" width="120" height="60" as="geometry" />
        </mxCell>
        <mxCell id="VwrpLJ0H7ob7NyGUzkcD-8" value="&lt;div style=&quot;display: flex; justify-content: flex-start; text-align: left; align-items: baseline; font-size: 0; line-height: 1.25;margin-top: -2px;&quot;&gt;&lt;span&gt;&lt;span style=&quot;font-size:14.7px;&quot;&gt;- Позвольте узнать, почему наше предложение Вас не заинтересовало?&#xa;&lt;/span&gt;&lt;/span&gt;&lt;/div&gt;&lt;div style=&quot;display: flex; justify-content: center; text-align: center; align-items: baseline; font-size: 0; line-height: 1.25;margin-top: -2px;&quot;&gt;&lt;span&gt;&lt;span style=&quot;font-size:14.7px;&quot;&gt;&lt;span style=&quot;font-size:14.7px;&quot;&gt; - Вы неизвестная для меня платежная система&#xa; - Среди наших партнеров следующие проекты:&#xa; ввв.ком&#xa; Иван.ком&#xa;&#xa; Также о нас пишут в официальном канале телеграма: t.me/toncoin/…&#xa; Компания зарегистрирована в Канаде *название, номер и адрес*&#xa;&#xa;Зачисления и выплаты у нас моментальные, холда нет. Также есть функция автовывода. Т.е. Вы можете принимать криптовалюту и настроить автовывод по достижению определенной суммы или в определенный период (раз в час к примеру). И средства будут автоматически поступать на любой Ваш кошелек. Тем самым у Вас нет никаких рисков&#xa;&#xa; Когда примерно планируете зарегистрироваться на нашем сайте? &lt;/span&gt;&lt;span style=&quot;font-size:14.7px;font-weight: bold;&quot;&gt;/&lt;/span&gt; Протестируете нашу систему?&lt;/span&gt;&lt;/span&gt;&lt;/div&gt;" style="html=1;overflow=block;blockSpacing=1;whiteSpace=wrap;fontSize=13;spacing=3.8;verticalAlign=middle;strokeColor=#fbf0ff;strokeOpacity=100;fillOpacity=100;rounded=1;absoluteArcSize=1;arcSize=9;fillColor=#fbf0ff;strokeWidth=1.5;lucidId=8d4AHR-szr0y;" vertex="1" parent="1">
          <mxGeometry x="-450" y="239" width="300" height="510" as="geometry" />
        </mxCell>
        <mxCell id="VwrpLJ0H7ob7NyGUzkcD-9" value="- Мы стремимся быть лидерами на рынке и трепетно относимся к каждому мнению. Мы уже сделали очень много решений, которые просили наши клиенты, от автоконверта поступающих средств от платежей, как защиту от волатильности до автовывода, чтобы не хранить средства на нашем балансе, ведь централизованные сервисы не должны быть местом хранения денежных средств. Подскажите, пожалуйста, что нам нужно улучшить/добавить, чтобы предложение стало интересным?" style="html=1;overflow=block;blockSpacing=1;whiteSpace=wrap;fontSize=14.7;align=left;spacing=3.8;verticalAlign=middle;strokeColor=#fbf0ff;strokeOpacity=100;fillOpacity=100;rounded=1;absoluteArcSize=1;arcSize=9;fillColor=#fbf0ff;strokeWidth=1.5;lucidId=.f4AKWI4AMWA;" vertex="1" parent="1">
          <mxGeometry x="-450" y="780" width="300" height="240" as="geometry" />
        </mxCell>
        <mxCell id="VwrpLJ0H7ob7NyGUzkcD-10" value="&lt;div style=&quot;display: flex; justify-content: flex-start; text-align: left; align-items: baseline; font-size: 0; line-height: 1.25;margin-top: -2px;&quot;&gt;&lt;span&gt;&lt;span style=&quot;font-size:14.7px;&quot;&gt;- Вам не интересно привлечь новых пользователей на сайт, повысить общий оборот и увеличить прибыль?&lt;/span&gt;&lt;span style=&quot;font-size:16px;&quot;&gt;&#xa;&lt;/span&gt;&lt;/span&gt;&lt;/div&gt;&lt;div style=&quot;display: flex; justify-content: flex-start; text-align: left; align-items: baseline; font-size: 0; line-height: 1.25;margin-top: -2px;&quot;&gt;&lt;span&gt;&lt;span style=&quot;font-size:14.7px;&quot;&gt;Наш криптовалютный эквайринг обладает решением кроссчейн проблемы, которая позволяет увеличить конверсию, а спектр монет позволяет клиентам тратить свои средства проще, все эти преимущества повысят Ваш оборот, а следственно и прибыль. Как Вы смотрите на то, чтобы добавить нашу систему как дополнительную?&lt;/span&gt;&lt;/span&gt;&lt;/div&gt;" style="html=1;overflow=block;blockSpacing=1;whiteSpace=wrap;fontSize=13;spacing=3.8;verticalAlign=middle;strokeColor=#fbf0ff;strokeOpacity=100;fillOpacity=100;rounded=1;absoluteArcSize=1;arcSize=9;fillColor=#fbf0ff;strokeWidth=1.5;lucidId=bi4AF7TCPT2Q;" vertex="1" parent="1">
          <mxGeometry x="-450" y="1050" width="300" height="240" as="geometry" />
        </mxCell>
        <mxCell id="VwrpLJ0H7ob7NyGUzkcD-11" value="" style="html=1;jettySize=18;whiteSpace=wrap;overflow=block;blockSpacing=1;fontSize=13;strokeOpacity=100;strokeWidth=0.8;rounded=1;arcSize=12;edgeStyle=orthogonalEdgeStyle;startArrow=none;endArrow=block;endFill=1;exitX=0.5;exitY=1.012;exitPerimeter=0;entryX=0.5;entryY=-0.001;entryPerimeter=0;lucidId=Kl4A-s.tz3mB;" edge="1" parent="1" source="VwrpLJ0H7ob7NyGUzkcD-6" target="VwrpLJ0H7ob7NyGUzkcD-8">
          <mxGeometry width="100" height="100" relative="1" as="geometry">
            <Array as="points" />
          </mxGeometry>
        </mxCell>
        <mxCell id="VwrpLJ0H7ob7NyGUzkcD-12" value="Подскажите, пожалуйста, Вы хотели бы подумать над технической возможностью интеграции нашего сервиса или быть может о наших тарифах?" style="html=1;overflow=block;blockSpacing=1;whiteSpace=wrap;fontSize=14.7;align=left;spacing=3.8;verticalAlign=middle;strokeColor=#fff0f0;strokeOpacity=100;fillOpacity=100;rounded=1;absoluteArcSize=1;arcSize=9;fillColor=#fff0f0;strokeWidth=1.5;lucidId=6m4A3I_49YYy;" vertex="1" parent="1">
          <mxGeometry x="-30" y="239" width="300" height="120" as="geometry" />
        </mxCell>
        <mxCell id="VwrpLJ0H7ob7NyGUzkcD-13" value="" style="html=1;jettySize=18;whiteSpace=wrap;overflow=block;blockSpacing=1;fontSize=13;strokeColor=#3a414a;strokeOpacity=100;strokeWidth=0.8;rounded=1;arcSize=12;edgeStyle=orthogonalEdgeStyle;startArrow=none;endArrow=block;endFill=1;exitX=0.5;exitY=1.012;exitPerimeter=0;entryX=0.5;entryY=-0.006;entryPerimeter=0;lucidId=Bn4A4RBV_hk0;" edge="1" parent="1" source="VwrpLJ0H7ob7NyGUzkcD-5" target="VwrpLJ0H7ob7NyGUzkcD-12">
          <mxGeometry width="100" height="100" relative="1" as="geometry">
            <Array as="points" />
          </mxGeometry>
        </mxCell>
        <mxCell id="VwrpLJ0H7ob7NyGUzkcD-14" value="Понимаю, правильное решение всегда требует немного времени на раздумья:). Пока можете ознакомиться с нашим сайтом – cryptomus.com и API – doc.cryptomus.com&#xa;&#xa;Подскажите, а Вы хотите принимать и хранить на балансе каждую монету отдельно? Или быть может принимать все виды монет и забирать в USDT?" style="html=1;overflow=block;blockSpacing=1;whiteSpace=wrap;fontSize=14.7;align=left;spacing=3.8;verticalAlign=middle;strokeColor=#fff0f0;strokeOpacity=100;fillOpacity=100;rounded=1;absoluteArcSize=1;arcSize=9;fillColor=#fff0f0;strokeWidth=1.5;lucidId=Jn4A4Xera9zk;" vertex="1" parent="1">
          <mxGeometry x="-30" y="388" width="300" height="212" as="geometry" />
        </mxCell>
        <mxCell id="VwrpLJ0H7ob7NyGUzkcD-15" value="&lt;div style=&quot;display: flex; justify-content: flex-start; text-align: left; align-items: baseline; font-size: 0; line-height: 1.25;margin-top: -2px;&quot;&gt;&lt;span&gt;&lt;span style=&quot;font-size:14.7px;&quot;&gt;- Позвольте узнать, почему наше предложение Вас не заинтересовало?&#xa;&lt;/span&gt;&lt;/span&gt;&lt;/div&gt;&lt;div style=&quot;display: flex; justify-content: center; text-align: center; align-items: baseline; font-size: 0; line-height: 1.25;margin-top: -2px;&quot;&gt;&lt;span&gt;&lt;span style=&quot;font-size:14.7px;&quot;&gt;&lt;span style=&quot;font-size:14.7px;&quot;&gt; - Вы неизвестная для меня платежная система&#xa; - Среди наших партнеров следующие проекты:&#xa; ввв.ком&#xa; Иван.ком&#xa;&#xa; Также о нас пишут в официальном канале телеграма: t.me/toncoin/…&#xa; Компания зарегистрирована в Канаде *название, номер и адрес*&#xa;&#xa;Зачисления и выплаты у нас моментальные, холда нет. Также есть функция автовывода. Т.е. Вы можете принимать криптовалюту и настроить автовывод по достижению определенной суммы или в определенный период (раз в час к примеру). И средства будут автоматически поступать на любой Ваш кошелек. Тем самым у Вас нет никаких рисков&#xa;&#xa; Когда примерно планируете зарегистрироваться на нашем сайте? &lt;/span&gt;&lt;span style=&quot;font-size:14.7px;font-weight: bold;&quot;&gt;/&lt;/span&gt; Протестируете нашу систему?&lt;/span&gt;&lt;/span&gt;&lt;/div&gt;" style="html=1;overflow=block;blockSpacing=1;whiteSpace=wrap;fontSize=13;spacing=3.8;verticalAlign=middle;strokeColor=#fff0f0;strokeOpacity=100;fillOpacity=100;rounded=1;absoluteArcSize=1;arcSize=9;fillColor=#fff0f0;strokeWidth=1.5;lucidId=Jo4AdWlgr.mb;" vertex="1" parent="1">
          <mxGeometry x="-30" y="629" width="300" height="512" as="geometry" />
        </mxCell>
        <mxCell id="VwrpLJ0H7ob7NyGUzkcD-16" value="Хорошо, если я Вам напишу в понедельник во второй половине дня чтобы узнать ответ по предложению, будет нормально?" style="html=1;overflow=block;blockSpacing=1;whiteSpace=wrap;fontSize=14.7;align=left;spacing=3.8;verticalAlign=middle;strokeColor=#fff0f0;strokeOpacity=100;fillOpacity=100;rounded=1;absoluteArcSize=1;arcSize=9;fillColor=#fff0f0;strokeWidth=1.5;lucidId=Es4AbRIqKqhv;" vertex="1" parent="1">
          <mxGeometry x="-30" y="1170" width="300" height="120" as="geometry" />
        </mxCell>
        <mxCell id="VwrpLJ0H7ob7NyGUzkcD-17" value="Понимаю, обязательно необходимо обдумывать каждое поступающее предложение, тем не менее за время нашего общения у Вас уже могло бы оплатить криптовалютой несколько клиентов. Быть может рассказать о наших тарифах и доступных криптовалютах на прием и вывод?" style="html=1;overflow=block;blockSpacing=1;whiteSpace=wrap;fontSize=14.7;align=left;spacing=3.8;verticalAlign=middle;strokeColor=#fff0f0;strokeOpacity=100;fillOpacity=100;rounded=1;absoluteArcSize=1;arcSize=9;fillColor=#fff0f0;strokeWidth=1.5;lucidId=Xs4A8fFWJpjf;" vertex="1" parent="1">
          <mxGeometry x="-30" y="1319" width="300" height="149" as="geometry" />
        </mxCell>
        <mxCell id="VwrpLJ0H7ob7NyGUzkcD-18" value="&lt;div style=&quot;display: flex; justify-content: flex-start; text-align: left; align-items: baseline; font-size: 0; line-height: 1.25;margin-top: -2px;&quot;&gt;&lt;span&gt;&lt;span style=&quot;font-size:14.7px;&quot;&gt;&lt;span style=&quot;font-size:14.7px;&quot;&gt;- Понимаю, что Coinbase это довольно известная платежная система, тем не менее Вы можете добавить нас как доп систему только на прием USDT TRC20 &lt;/span&gt;&lt;span style=&quot;font-size:14.7px;font-weight: bold;&quot;&gt;и &lt;/span&gt;&lt;span style=&quot;font-size:14.7px;&quot;&gt;других монет, которых нет на Coinbase. Тем самым Вы не только сможете привлечь новых клиентов на сайт, кто будет платить только этим методом, но и заработаете больше за счет наших низких тарифов&lt;/span&gt;&lt;span style=&quot;font-size:14.7px;font-weight: bold;&quot;&gt;. &lt;/span&gt;Также мы можем добавить любую монету в течение 24 часов, если этот блокчейн нами поддерживается.&#xa;&lt;/span&gt;&lt;/span&gt;&lt;/div&gt;&lt;div style=&quot;display: flex; justify-content: center; text-align: center; align-items: baseline; font-size: 0; line-height: 1.25;margin-top: -2px;&quot;&gt;&lt;span&gt;&lt;span style=&quot;font-size:14.7px;&quot;&gt;&#xa;Зачисления и выплаты у нас моментальные, есть функция конвертации всех монет в USDT за 0% по курсу Binance биржи. А также есть возможность поставить автовывод на любой Ваш кошелек.&#xa;&#xa;Когда примерно планируете зарегистрироваться? / Протестируем нашу систему? / Давайте подключим нашу систему как дополнительную? / Что скажете по поводу добавления нашей платежной системы как дополнительную? / Интересно ли Вам привлечь новых пользователей и экономить при этом?&lt;/span&gt;&lt;/span&gt;&lt;/div&gt;" style="html=1;overflow=block;blockSpacing=1;whiteSpace=wrap;fontSize=13;spacing=3.8;verticalAlign=middle;strokeColor=#fcfcca;strokeOpacity=100;fillOpacity=100;rounded=1;absoluteArcSize=1;arcSize=9;fillColor=#fcfcca;strokeWidth=1.5;lucidId=Ou4AwGe5MrSU;" vertex="1" parent="1">
          <mxGeometry x="390" y="239" width="300" height="510" as="geometry" />
        </mxCell>
        <mxCell id="VwrpLJ0H7ob7NyGUzkcD-19" value="" style="html=1;jettySize=18;whiteSpace=wrap;overflow=block;blockSpacing=1;fontSize=13;strokeColor=#3a414a;strokeOpacity=100;strokeWidth=0.8;rounded=1;arcSize=12;edgeStyle=orthogonalEdgeStyle;startArrow=none;endArrow=block;endFill=1;exitX=0.5;exitY=1.012;exitPerimeter=0;entryX=0.5;entryY=-0.001;entryPerimeter=0;lucidId=_u4Ad7HapguI;" edge="1" parent="1" source="VwrpLJ0H7ob7NyGUzkcD-3" target="VwrpLJ0H7ob7NyGUzkcD-18">
          <mxGeometry width="100" height="100" relative="1" as="geometry">
            <Array as="points" />
          </mxGeometry>
        </mxCell>
        <mxCell id="VwrpLJ0H7ob7NyGUzkcD-20" value="- Для обсуждения сотрудничества Вы можете связаться с нами по почте&#xa;- Я уже неоднократно пытался связаться там, однако мне не отвечают. У меня есть важное предложение для Вашего руководителя, которое сэкономит Вам средства при приеме платежей. Как я могу связаться с руководителем напрямую?" style="html=1;overflow=block;blockSpacing=1;whiteSpace=wrap;fontSize=14.7;align=left;spacing=3.8;verticalAlign=middle;strokeColor=#e3fae3;strokeOpacity=100;fillOpacity=100;rounded=1;absoluteArcSize=1;arcSize=9;fillColor=#e3fae3;strokeWidth=1.5;lucidId=KA4A6gW2j5d4;" vertex="1" parent="1">
          <mxGeometry x="810" y="240" width="300" height="165" as="geometry" />
        </mxCell>
        <mxCell id="VwrpLJ0H7ob7NyGUzkcD-21" value="" style="html=1;jettySize=18;whiteSpace=wrap;overflow=block;blockSpacing=1;fontSize=13;strokeColor=#3a414a;strokeOpacity=100;strokeWidth=0.8;rounded=1;arcSize=12;edgeStyle=orthogonalEdgeStyle;startArrow=none;endArrow=block;endFill=1;exitX=0.5;exitY=1.012;exitPerimeter=0;entryX=0.5;entryY=-0.005;entryPerimeter=0;lucidId=WA4A7mn-m91K;" edge="1" parent="1" source="VwrpLJ0H7ob7NyGUzkcD-4" target="VwrpLJ0H7ob7NyGUzkcD-20">
          <mxGeometry width="100" height="100" relative="1" as="geometry">
            <Array as="points" />
          </mxGeometry>
        </mxCell>
        <mxCell id="VwrpLJ0H7ob7NyGUzkcD-22" value="&lt;div style=&quot;display: flex; justify-content: flex-start; text-align: left; align-items: baseline; font-size: 0; line-height: 1.25;margin-top: -2px;&quot;&gt;&lt;span&gt;&lt;span style=&quot;font-size:14.7px;&quot;&gt;- Мы передали предложение в соответствующий отдел&#xa;&lt;/span&gt;&lt;/span&gt;&lt;/div&gt;&lt;div style=&quot;display: flex; justify-content: flex-start; text-align: left; align-items: baseline; font-size: 0; line-height: 1.25;margin-top: -2px;&quot;&gt;&lt;span&gt;&lt;span style=&quot;font-size:14.7px;&quot;&gt;Хорошо, как долго обычно рассматривают подобные предложения?&#xa;&lt;/span&gt;&lt;/span&gt;&lt;/div&gt;&lt;div style=&quot;display: flex; justify-content: flex-start; text-align: left; align-items: baseline; font-size: 0; line-height: 1.25;margin-top: -2px;&quot;&gt;&lt;span&gt;&lt;span style=&quot;font-size:14.7px;&quot;&gt;- 3-5 дней&#xa;&lt;/span&gt;&lt;/span&gt;&lt;/div&gt;&lt;div style=&quot;display: flex; justify-content: flex-start; text-align: left; align-items: baseline; font-size: 0; line-height: 1.25;margin-top: -2px;&quot;&gt;&lt;span&gt;&lt;span style=&quot;font-size:14.7px;&quot;&gt;- Хорошо, свяжусь через 3-5 дней&lt;/span&gt;&lt;/span&gt;&lt;/div&gt;" style="html=1;overflow=block;blockSpacing=1;whiteSpace=wrap;fontSize=13;spacing=3.8;verticalAlign=middle;strokeColor=#e3fae3;strokeOpacity=100;fillOpacity=100;rounded=1;absoluteArcSize=1;arcSize=9;fillColor=#e3fae3;strokeWidth=1.5;lucidId=tB4AtjR8KKQT;" vertex="1" parent="1">
          <mxGeometry x="810" y="435" width="300" height="120" as="geometry" />
        </mxCell>
        <mxCell id="VwrpLJ0H7ob7NyGUzkcD-23" value="&lt;div style=&quot;display: flex; justify-content: flex-start; text-align: left; align-items: baseline; font-size: 0; line-height: 1.25;margin-top: -2px;&quot;&gt;&lt;span&gt;&lt;span style=&quot;font-size:14.7px;&quot;&gt;- Мы передали предложение в соответствующий отдел&#xa;&lt;/span&gt;&lt;/span&gt;&lt;/div&gt;&lt;div style=&quot;display: flex; justify-content: flex-start; text-align: left; align-items: baseline; font-size: 0; line-height: 1.25;margin-top: -2px;&quot;&gt;&lt;span&gt;&lt;span style=&quot;font-size:14.7px;&quot;&gt;Понимаю, что у Вас такой регламент, тем не менее за время нашего общения Вы могли бы уже сэкономить множество средств. Данное предложение необходимо обсудить именно с руководством и как можно быстрее, время=деньги. Подскажите, пожалуйста, контакт руководителя данного отдела.&lt;/span&gt;&lt;/span&gt;&lt;/div&gt;" style="html=1;overflow=block;blockSpacing=1;whiteSpace=wrap;fontSize=13;spacing=3.8;verticalAlign=middle;strokeColor=#e3fae3;strokeOpacity=100;fillOpacity=100;rounded=1;absoluteArcSize=1;arcSize=9;fillColor=#e3fae3;strokeWidth=1.5;lucidId=hC4AQEUEakV0;" vertex="1" parent="1">
          <mxGeometry x="810" y="585" width="300" height="193" as="geometry" />
        </mxCell>
        <mxCell id="VwrpLJ0H7ob7NyGUzkcD-24" value="&lt;div style=&quot;display: flex; justify-content: flex-start; text-align: left; align-items: baseline; font-size: 0; line-height: 1.25;margin-top: -2px;&quot;&gt;&lt;span&gt;&lt;span style=&quot;font-size:14.7px;&quot;&gt;Я вас услышал, но тем не менее, платежи в криптовалюте довольно популярны в вашей сфере и мы сотрудничаем с большим количеством хостинговых компаний. Есть вероятность, что новая аудитория прибывает и не видит способов оплаты и уходить искать там, где принимают криптовалюту. Среди наших клиентов уже были похожие примеры, поэтому говорю об этом, исходя из опыта других сервисов. &#xa;&lt;/span&gt;&lt;/span&gt;&lt;/div&gt;&lt;div style=&quot;display: flex; justify-content: flex-start; text-align: left; align-items: baseline; font-size: 0; line-height: 1.25;margin-top: -2px;&quot;&gt;&lt;span&gt;&lt;span style=&quot;font-size:14.7px;&quot;&gt;Криптовалюта в вашем случае может привлечь новую аудиторию, а также повысить платежеспособность нынешней аудитории, так как криптовалюта как для вас, так и для ваших клиентов дешевле фиатных платежных систем. &#xa;&lt;/span&gt;&lt;/span&gt;&lt;/div&gt;&lt;div style=&quot;display: flex; justify-content: flex-start; text-align: left; align-items: baseline; font-size: 0; line-height: 1.25;margin-top: -2px;&quot;&gt;&lt;span&gt;&lt;span style=&quot;font-size:14.7px;&quot;&gt;Мы готовы предложить для вас 1% на прием и 0% на вывод, а также полностью автоматизированное решение с автоконверацией и автовыводом. &#xa;&lt;/span&gt;&lt;/span&gt;&lt;/div&gt;&lt;div style=&quot;display: flex; justify-content: flex-start; text-align: left; align-items: baseline; font-size: 0; line-height: 1.25;margin-top: -2px;&quot;&gt;&lt;span&gt;&lt;span style=&quot;font-size:14.7px;&quot;&gt;Также наше решение предоставляет самую быструю поддержку клиентов, в том числе техническую. &#xa;&lt;/span&gt;&lt;/span&gt;&lt;/div&gt;&lt;div style=&quot;display: flex; justify-content: flex-start; text-align: left; align-items: baseline; font-size: 0; line-height: 1.25;margin-top: -2px;&quot;&gt;&lt;span&gt;&lt;span style=&quot;font-size:14.7px;&quot;&gt;Буду рад, если вы рассмотрите вопрос подробнее. Также могу предоставить для вас информацию об увеличении крипто трафика, который составил наш маркетинговый отдел.&lt;/span&gt;&lt;/span&gt;&lt;/div&gt;" style="html=1;overflow=block;blockSpacing=1;whiteSpace=wrap;fontSize=13;spacing=3.8;verticalAlign=middle;strokeColor=#edf5ff;strokeOpacity=100;fillOpacity=100;rounded=1;absoluteArcSize=1;arcSize=9;fillColor=#edf5ff;strokeWidth=1.5;lucidId=3D4A_5InLQEB;" vertex="1" parent="1">
          <mxGeometry x="1230" y="239" width="300" height="518" as="geometry" />
        </mxCell>
        <mxCell id="VwrpLJ0H7ob7NyGUzkcD-25" value="" style="html=1;jettySize=18;whiteSpace=wrap;overflow=block;blockSpacing=1;fontSize=13;strokeColor=#3a414a;strokeOpacity=100;strokeWidth=0.8;rounded=1;arcSize=12;edgeStyle=orthogonalEdgeStyle;startArrow=none;endArrow=block;endFill=1;exitX=0.5;exitY=1.012;exitPerimeter=0;entryX=0.5;entryY=-0.001;entryPerimeter=0;lucidId=.D4AnlQn.F1L;" edge="1" parent="1" source="VwrpLJ0H7ob7NyGUzkcD-7" target="VwrpLJ0H7ob7NyGUzkcD-24">
          <mxGeometry width="100" height="100" relative="1" as="geometry">
            <Array as="points" />
          </mxGeometry>
        </mxCell>
        <mxCell id="VwrpLJ0H7ob7NyGUzkcD-26" value="&lt;div style=&quot;display: flex; justify-content: flex-start; text-align: left; align-items: baseline; font-size: 0; line-height: 1.25;margin-top: -2px;&quot;&gt;&lt;span&gt;&lt;span style=&quot;font-size:14.7px;&quot;&gt;У вас уже представлена фиатная платежная система, а также будет криптовалютная. Альтернативный метод не будет лишним точно. Во-первых, крипта всегда выгоднее фиата в разы. Srtipe/Paypal взимают от 2.9% до 6.9%. С нами будет 1% фикс. &#xa;&lt;/span&gt;&lt;/span&gt;&lt;/div&gt;&lt;div style=&quot;display: flex; justify-content: flex-start; text-align: left; align-items: baseline; font-size: 0; line-height: 1.25;margin-top: -2px;&quot;&gt;&lt;span&gt;&lt;span style=&quot;font-size:14.7px;&quot;&gt;Автоконвертация в USDT защитит средства от волатильности. Все будет храниться в долларах. &#xa;&lt;/span&gt;&lt;/span&gt;&lt;/div&gt;&lt;div style=&quot;display: flex; justify-content: flex-start; text-align: left; align-items: baseline; font-size: 0; line-height: 1.25;margin-top: -2px;&quot;&gt;&lt;span&gt;&lt;span style=&quot;font-size:14.7px;&quot;&gt;Добавите чуть больше волатильности своим средствам, часть можно диверсифицировать. &#xa;&lt;/span&gt;&lt;/span&gt;&lt;/div&gt;&lt;div style=&quot;display: flex; justify-content: flex-start; text-align: left; align-items: baseline; font-size: 0; line-height: 1.25;margin-top: -2px;&quot;&gt;&lt;span&gt;&lt;span style=&quot;font-size:14.7px;&quot;&gt;Избавитесь от географических ограничений полностью, оплатить можно будет отовсюду. &#xa;&lt;/span&gt;&lt;/span&gt;&lt;/div&gt;&lt;div style=&quot;display: flex; justify-content: flex-start; text-align: left; align-items: baseline; font-size: 0; line-height: 1.25;margin-top: -2px;&quot;&gt;&lt;span&gt;&lt;span style=&quot;font-size:14.7px;&quot;&gt;Есть множество примеров, когда бизнесы уходила в крипту целенаправленно и трафик перетекал именно в крипту. Если сделать акцент на этом, обязательно появится спрос. Можно давать скидку, пролонгировать услугу.&lt;/span&gt;&lt;/span&gt;&lt;/div&gt;" style="html=1;overflow=block;blockSpacing=1;whiteSpace=wrap;fontSize=13;spacing=3.8;verticalAlign=middle;strokeColor=#edf5ff;strokeOpacity=100;fillOpacity=100;rounded=1;absoluteArcSize=1;arcSize=9;fillColor=#edf5ff;strokeWidth=1.5;lucidId=1E4AWubAMlVt;" vertex="1" parent="1">
          <mxGeometry x="1230" y="780" width="300" height="405" as="geometry" />
        </mxCell>
        <mxCell id="VwrpLJ0H7ob7NyGUzkcD-27" value="&lt;div style=&quot;display: flex; justify-content: flex-start; text-align: left; align-items: baseline; font-size: 0; line-height: 1.25;margin-top: -2px;&quot;&gt;&lt;span&gt;&lt;span style=&quot;font-size:14.7px;&quot;&gt;Не могли бы вы рассказать мне, почему вы не рассматриваете возможность приема криптовалюты в качестве альтернативного варианта оплаты ваших услуг? &#xa;&lt;/span&gt;&lt;/span&gt;&lt;/div&gt;&lt;div style=&quot;display: flex; justify-content: flex-start; text-align: left; align-items: baseline; font-size: 0; line-height: 1.25;margin-top: -2px;&quot;&gt;&lt;span&gt;&lt;span style=&quot;font-size:14.7px;&quot;&gt;Дело в том, что ваш сервис довольно популярен. Думаю, для вас это будет очень актуально. &#xa;&lt;/span&gt;&lt;/span&gt;&lt;/div&gt;&lt;div style=&quot;display: flex; justify-content: flex-start; text-align: left; align-items: baseline; font-size: 0; line-height: 1.25;margin-top: -2px;&quot;&gt;&lt;span&gt;&lt;span style=&quot;font-size:14.7px;&quot;&gt;Взаимодействие и сотрудничество с Cryptomus бесплатное и простое. Это не займет у вас много времени. &#xa;&lt;/span&gt;&lt;/span&gt;&lt;/div&gt;&lt;div style=&quot;display: flex; justify-content: flex-start; text-align: left; align-items: baseline; font-size: 0; line-height: 1.25;margin-top: -2px;&quot;&gt;&lt;span&gt;&lt;span style=&quot;font-size:14.7px;&quot;&gt;Но с нашей помощью вы сможете расширить географию своих клиентов и увеличить свой оборот.&lt;/span&gt;&lt;/span&gt;&lt;/div&gt;" style="html=1;overflow=block;blockSpacing=1;whiteSpace=wrap;fontSize=13;spacing=3.8;verticalAlign=middle;strokeColor=#edf5ff;strokeOpacity=100;fillOpacity=100;rounded=1;absoluteArcSize=1;arcSize=9;fillColor=#edf5ff;strokeWidth=1.5;lucidId=RF4Ajt0d4rA8;" vertex="1" parent="1">
          <mxGeometry x="1230" y="1215" width="300" height="261" as="geometry" />
        </mxCell>
        <mxCell id="VwrpLJ0H7ob7NyGUzkcD-28" value="&lt;div style=&quot;display: flex; justify-content: flex-start; text-align: left; align-items: baseline; font-size: 0; line-height: 1.25;margin-top: -2px;&quot;&gt;&lt;span&gt;&lt;span style=&quot;font-size:14.7px;&quot;&gt;Не спешите отказываться от моего предложения. &#xa;&lt;/span&gt;&lt;/span&gt;&lt;/div&gt;&lt;div style=&quot;display: flex; justify-content: flex-start; text-align: left; align-items: baseline; font-size: 0; line-height: 1.25;margin-top: -2px;&quot;&gt;&lt;span&gt;&lt;span style=&quot;font-size:14.7px;&quot;&gt;Мы готовы рассмотреть для вас лучшее предложение с тарифом от 1%.&#xa;&lt;/span&gt;&lt;/span&gt;&lt;/div&gt;&lt;div style=&quot;display: flex; justify-content: flex-start; text-align: left; align-items: baseline; font-size: 0; line-height: 1.25;margin-top: -2px;&quot;&gt;&lt;span&gt;&lt;span style=&quot;font-size:14.7px;&quot;&gt;Вы сможете принимать платежи в более чем 20 монетах, что позволит расширить географию платежей и вашу клиентскую базу.&#xa;&lt;/span&gt;&lt;/span&gt;&lt;/div&gt;&lt;div style=&quot;display: flex; justify-content: flex-start; text-align: left; align-items: baseline; font-size: 0; line-height: 1.25;margin-top: -2px;&quot;&gt;&lt;span&gt;&lt;span style=&quot;font-size:14.7px;&quot;&gt;Я думаю, ваши клиенту не используют криптовалюту для оплаты, так как у вас не было данной возможности для приема криптоплатежей до этого. Если вы добавите нас как альтернативный способ оплаты, ваша клиентская база может значительно расшириться, также как и география платежей.&lt;/span&gt;&lt;/span&gt;&lt;/div&gt;" style="html=1;overflow=block;blockSpacing=1;whiteSpace=wrap;fontSize=13;spacing=3.8;verticalAlign=middle;strokeColor=#edf5ff;strokeOpacity=100;fillOpacity=100;rounded=1;absoluteArcSize=1;arcSize=9;fillColor=#edf5ff;strokeWidth=1.5;lucidId=dG4A_-XEOvGP;" vertex="1" parent="1">
          <mxGeometry x="1230" y="1506" width="300" height="292" as="geometry" />
        </mxCell>
        <mxCell id="VwrpLJ0H7ob7NyGUzkcD-29" value="&lt;div style=&quot;display: flex; justify-content: flex-start; text-align: left; align-items: baseline; font-size: 0; line-height: 1.25;margin-top: -2px;&quot;&gt;&lt;span&gt;&lt;span style=&quot;font-size:13px;&quot;&gt;Более подробно, как отрабатывать данное возражение расписано в &lt;/span&gt;&lt;a href=&quot;https://docs.google.com/document/d/1Z88g8-WuugVuAT_PQKNnpAixRX3ee4HDpua-xHIX57A/edit?hl=ru&amp;amp;tab=t.0#heading=h.1n1qav6jgok1&quot;&gt;&lt;span style=&quot;font-size:13px;color:#1155cc;text-decoration: underline;&quot;&gt;документе по офферам&lt;/span&gt;&lt;/a&gt;&lt;span style=&quot;font-size:13px;&quot;&gt; (пункты 7-8.2 про сравнение с конкурентами)&lt;/span&gt;&lt;/span&gt;&lt;/div&gt;" style="html=1;overflow=block;blockSpacing=1;whiteSpace=wrap;shadow=1;fontSize=13;spacing=9;strokeColor=none;strokeOpacity=100;fillColor=#FFECA9;strokeWidth=0;lucidId=mL4A-ioop8pU;" vertex="1" parent="1">
          <mxGeometry x="431" y="780" width="218" height="120" as="geometry" />
        </mxCell>
        <mxCell id="VwrpLJ0H7ob7NyGUzkcD-30" value="" style="html=1;jettySize=18;whiteSpace=wrap;overflow=block;blockSpacing=1;fontSize=13;strokeColor=#3a414a;strokeOpacity=100;strokeWidth=0.8;rounded=1;arcSize=12;edgeStyle=orthogonalEdgeStyle;startArrow=none;endArrow=block;endFill=1;exitX=0.087;exitY=1.012;exitPerimeter=0;entryX=0.5;entryY=-0.012;entryPerimeter=0;lucidId=LR4AXsa2kCGf;" edge="1" parent="1" source="VwrpLJ0H7ob7NyGUzkcD-1" target="VwrpLJ0H7ob7NyGUzkcD-6">
          <mxGeometry width="100" height="100" relative="1" as="geometry">
            <Array as="points" />
          </mxGeometry>
        </mxCell>
        <mxCell id="VwrpLJ0H7ob7NyGUzkcD-31" value="" style="html=1;jettySize=18;whiteSpace=wrap;overflow=block;blockSpacing=1;fontSize=13;strokeColor=#3a414a;strokeOpacity=100;strokeWidth=0.8;rounded=1;arcSize=12;edgeStyle=orthogonalEdgeStyle;startArrow=none;endArrow=block;endFill=1;exitX=0.254;exitY=1.012;exitPerimeter=0;entryX=0.5;entryY=-0.012;entryPerimeter=0;lucidId=SR4AbvD3nWTG;" edge="1" parent="1" source="VwrpLJ0H7ob7NyGUzkcD-1" target="VwrpLJ0H7ob7NyGUzkcD-5">
          <mxGeometry width="100" height="100" relative="1" as="geometry">
            <Array as="points" />
          </mxGeometry>
        </mxCell>
        <mxCell id="VwrpLJ0H7ob7NyGUzkcD-32" value="" style="html=1;jettySize=18;whiteSpace=wrap;overflow=block;blockSpacing=1;fontSize=13;strokeColor=#3a414a;strokeOpacity=100;strokeWidth=0.8;rounded=1;arcSize=12;edgeStyle=orthogonalEdgeStyle;startArrow=none;endArrow=block;endFill=1;exitX=0.75;exitY=1.012;exitPerimeter=0;entryX=0.5;entryY=-0.012;entryPerimeter=0;lucidId=XR4Ap11xv_Pa;" edge="1" parent="1" source="VwrpLJ0H7ob7NyGUzkcD-1" target="VwrpLJ0H7ob7NyGUzkcD-4">
          <mxGeometry width="100" height="100" relative="1" as="geometry">
            <Array as="points" />
          </mxGeometry>
        </mxCell>
        <mxCell id="VwrpLJ0H7ob7NyGUzkcD-33" value="" style="html=1;jettySize=18;whiteSpace=wrap;overflow=block;blockSpacing=1;fontSize=13;strokeColor=#3a414a;strokeOpacity=100;strokeWidth=0.8;rounded=1;arcSize=12;edgeStyle=orthogonalEdgeStyle;startArrow=none;endArrow=block;endFill=1;exitX=0.921;exitY=1.012;exitPerimeter=0;entryX=0.5;entryY=-0.012;entryPerimeter=0;lucidId=1R4A8H6ElkfL;" edge="1" parent="1" source="VwrpLJ0H7ob7NyGUzkcD-1" target="VwrpLJ0H7ob7NyGUzkcD-7">
          <mxGeometry width="100" height="100" relative="1" as="geometry">
            <Array as="points" />
          </mxGeometry>
        </mxCell>
      </root>
    </mxGraphModel>
  </diagram>
</mxfile>
